<svg version="1.1" id="Camada_1" xmlns="http://www.w3.org/2000/svg" x="0" y="0" viewBox="0 0 1524.6 393" xml:space="preserve"><style>.st0{fill:#fff}.st1{enable-background:new}</style><path class="st0" d="M344.9 194.2c0 .8.1 1.5.1 2.3 0 85-71.9 153.6-158 148.1C113.1 340 53 279.9 48.3 206c-5.4-86.2 63.1-158 148.1-158V0C83.4 0-7.6 95.9.4 210.5 7.3 307.5 86 386 183 392.5c115.2 7.7 211.3-84.5 210-198.3h-48.1z"/><path class="st0" d="M344.9 106.4v86.2c0 3.1 1.6 5.5 3.7 5.5h40.7c2 0 3.7-2.5 3.7-5.5V45.3c0-4.9-4-7.4-6.3-3.9L346 102.5c-.7 1.2-1.1 2.5-1.1 3.9z"/><path class="st0" d="M134.7 131.3l63.5 63.5L392.9 0v66.9L197.6 262.2l-96.9-97"/><g class="st1"><path class="st0" d="M500.7 126.4c7.6 3.2 13.3 7.6 17.2 12.9 3.9 5.4 5.8 11.7 5.8 19.1 0 10.7-3.4 19.4-10.3 26-6.8 6.6-15.9 9.9-27.2 9.9-9.2 0-16.9-2.4-23.1-7.1-6.2-4.7-10.4-11.4-12.6-20.1l12.6-6.2c1.7 7.1 4.5 12.4 8.4 16.1 3.9 3.6 8.8 5.5 14.7 5.5 7 0 12.6-2 16.9-6 4.3-4 6.5-9.2 6.5-15.7 0-5.2-1.5-9.8-4.5-13.6-3-3.9-7.5-7.1-13.6-9.8l-14.2-6.1c-7.8-3.2-13.6-7.4-17.4-12.5-3.8-5.1-5.7-11.2-5.7-18.4 0-8.3 3.1-15.2 9.3-20.6 6.2-5.4 14-8.1 23.6-8.1 7 0 13.1 1.5 18.2 4.5s9.1 7.4 12 13.2l-11.5 7.3c-2.6-4.5-5.5-7.9-8.8-10.1-3.2-2.2-6.9-3.3-11-3.3-5.2 0-9.5 1.6-12.8 4.8-3.3 3.2-5 7.3-5 12.2 0 4.2 1.3 7.7 3.8 10.8 2.6 3 6.5 5.7 11.9 8.1l16.8 7.2zM567.9 191.2v-53.5l-39.6-63.4h16l30.6 50.7 30.4-50.7h16l-39.5 63.4v53.5h-13.9zM678.2 126.4c7.6 3.2 13.3 7.6 17.2 12.9 3.9 5.4 5.8 11.7 5.8 19.1 0 10.7-3.4 19.4-10.3 26-6.8 6.6-15.9 9.9-27.2 9.9-9.2 0-16.9-2.4-23.1-7.1-6.2-4.7-10.4-11.4-12.6-20.1l12.6-6.2c1.7 7.1 4.5 12.4 8.4 16.1 3.9 3.6 8.8 5.5 14.7 5.5 7 0 12.6-2 16.9-6 4.3-4 6.5-9.2 6.5-15.7 0-5.2-1.5-9.8-4.5-13.6-3-3.9-7.5-7.1-13.6-9.8l-14.2-6.1c-7.8-3.2-13.6-7.4-17.4-12.5-3.8-5.1-5.7-11.2-5.7-18.4 0-8.3 3.1-15.2 9.3-20.6 6.2-5.4 14-8.1 23.6-8.1 7 0 13.1 1.5 18.2 4.5s9.1 7.4 12 13.2l-11.5 7.3c-2.6-4.5-5.5-7.9-8.8-10.1-3.2-2.2-6.9-3.3-11-3.3-5.2 0-9.5 1.6-12.8 4.8-3.3 3.2-5 7.3-5 12.2 0 4.2 1.3 7.7 3.8 10.8 2.6 3 6.5 5.7 11.9 8.1l16.8 7.2zM740.2 191.2V87.6h-33V74.4h80v13.3h-32.9v103.6h-14.1zM802.6 191.2V74.4h61.6v12.7h-47.7v33.5h47.7v12.9h-47.7v44.8h47.7v12.9h-61.6zM942.2 195.8l-36.3-84-14.7 79.4h-13.6l23.7-121.5 40.9 96.7 40.9-96.7 23.7 121.5h-13.6l-14.8-79.4-36.2 84z"/></g><g class="st1"><path class="st0" d="M450.3 344.9V228.1h27.5c7.8 0 13.6.4 17.2 1.3 3.6.9 6.9 2.4 9.6 4.5 3.5 2.7 6.1 6.3 8.1 10.9 1.9 4.5 2.9 9.6 2.9 15.1 0 9.6-2.7 16.9-8 21.8-5.3 5-13.2 7.5-23.5 7.5h-2.5l44.6 55.7h-17.6L466 289.2h-2v55.7h-13.7zm13.6-105.1v39.1h10.6c10.9 0 18.1-1.4 21.8-4.2 3.7-2.8 5.5-7.7 5.5-14.6 0-7.5-1.9-12.8-5.7-15.8-3.8-3-11-4.5-21.6-4.5h-10.6zM537.8 344.9V228.1h61.6v12.7h-47.7v33.5h47.7v12.9h-47.7V332h47.7v12.9h-61.6zM687.2 284.6h48.2v3.9c0 18.4-5.2 32.9-15.6 43.6-10.4 10.6-24.7 16-42.7 16-5.5 0-10.7-.6-15.7-1.8-5-1.2-9.6-2.9-13.8-5.1-9.6-5.3-17-12.5-22.2-21.8-5.2-9.3-7.8-19.8-7.8-31.6 0-9.7 1.6-18.5 4.7-26.4 3.1-7.8 7.8-14.8 14.1-20.7 5.3-5 11.4-8.8 18.4-11.3 7-2.6 14.7-3.8 23.1-3.8 11.2 0 21 2 29.2 6.1s15.1 10.2 20.5 18.4l-11.7 9.3c-4.2-7.1-9.4-12.4-15.7-15.9-6.3-3.5-13.6-5.3-21.9-5.3-13.6 0-24.6 4.6-33 13.7-8.5 9.2-12.7 21.1-12.7 35.9 0 13.9 4.3 25.4 12.9 34.3 8.6 8.9 19.5 13.4 32.8 13.4 11.7 0 21.5-3.6 29.3-10.7 7.8-7.1 12.1-16.3 13-27.7h-33.4v-12.5zM755.5 228.1h14v72.7c0 11.8 2.5 20.5 7.5 26s12.9 8.3 23.7 8.3c10.7 0 18.6-2.8 23.7-8.3s7.5-14.2 7.5-26v-72.7H846v72.7c0 15.8-3.8 27.6-11.3 35.5-7.5 7.8-18.9 11.8-34 11.8-15.1 0-26.4-3.9-34-11.8-7.5-7.8-11.3-19.7-11.3-35.5v-72.7zM873.8 344.9V228.1h13.9v103.6h44.1V345h-58z"/></g><g class="st1"><path class="st0" d="M985.3 223.4l53.2 121.5h-15.1l-15.2-35.8h-45.7l-15.2 35.8h-15.1l53.1-121.5zm0 30.8l-18.6 43h37.2l-18.6-43z"/></g><g class="st1"><path class="st0" d="M1062 344.9V241.3h-33V228h80v13.3h-33v103.6h-14zM1244 286.7c0 8.4-1.5 16.2-4.6 23.6-3.1 7.4-7.6 14-13.5 19.7-5.9 5.7-12.7 10.2-20.4 13.3-7.7 3.1-15.7 4.7-23.9 4.7-8.3 0-16.2-1.6-23.8-4.7-7.6-3.1-14.4-7.5-20.3-13.3-6-5.8-10.5-12.4-13.6-19.8-3.1-7.4-4.7-15.2-4.7-23.5 0-8.4 1.6-16.2 4.7-23.7s7.7-14 13.6-19.8c5.9-5.7 12.6-10.1 20.3-13.2 7.7-3.1 15.6-4.6 23.9-4.6 8.3 0 16.3 1.5 24 4.6 7.7 3.1 14.5 7.5 20.3 13.2 5.9 5.7 10.4 12.3 13.5 19.8s4.5 15.3 4.5 23.7zm-62.5 48.3c6.4 0 12.5-1.2 18.3-3.6 5.8-2.4 11-5.9 15.6-10.6 4.6-4.6 8.1-9.8 10.5-15.6 2.4-5.8 3.6-11.9 3.6-18.4 0-6.5-1.2-12.8-3.6-18.7-2.4-5.9-5.9-11.1-10.4-15.6-4.6-4.6-9.8-8.1-15.5-10.5-5.8-2.4-11.9-3.6-18.3-3.6-6.5 0-12.6 1.2-18.5 3.6-5.8 2.4-10.9 5.9-15.4 10.5-4.6 4.6-8.1 9.9-10.5 15.7-2.4 5.9-3.6 12.1-3.6 18.6 0 6.5 1.2 12.6 3.6 18.4 2.4 5.7 5.9 11 10.5 15.6 4.7 4.7 9.9 8.2 15.6 10.6 5.6 2.4 11.7 3.6 18.1 3.6zM1170 216.4l16.3-27.8h16l-22.7 27.8h-9.6zM1266.6 344.9V228.1h27.5c7.8 0 13.6.4 17.2 1.3 3.6.9 6.9 2.4 9.6 4.5 3.5 2.7 6.1 6.3 8.1 10.9 1.9 4.5 2.9 9.6 2.9 15.1 0 9.6-2.7 16.9-8 21.8-5.3 5-13.2 7.5-23.5 7.5h-2.5l44.6 55.7h-17.6l-42.6-55.7h-2v55.7h-13.7zm13.6-105.1v39.1h10.6c10.9 0 18.1-1.4 21.8-4.2s5.5-7.7 5.5-14.6c0-7.5-1.9-12.8-5.7-15.8-3.8-3-11-4.5-21.6-4.5h-10.6zM1354.3 344.9V228.1h13.9V345h-13.9zM1516 286.7c0 8.4-1.5 16.2-4.6 23.6-3.1 7.4-7.6 14-13.5 19.7-5.9 5.7-12.7 10.2-20.4 13.3-7.7 3.1-15.7 4.7-23.9 4.7-8.3 0-16.2-1.6-23.8-4.7-7.6-3.1-14.4-7.5-20.3-13.3-6-5.8-10.5-12.4-13.6-19.8-3.1-7.4-4.7-15.2-4.7-23.5 0-8.4 1.6-16.2 4.7-23.7s7.7-14 13.6-19.8c5.9-5.7 12.6-10.1 20.3-13.2 7.7-3.1 15.6-4.6 23.9-4.6 8.3 0 16.3 1.5 24 4.6 7.7 3.1 14.5 7.5 20.3 13.2 5.9 5.7 10.4 12.3 13.5 19.8s4.5 15.3 4.5 23.7zm-62.5 48.3c6.4 0 12.5-1.2 18.3-3.6 5.8-2.4 11-5.9 15.6-10.6 4.6-4.6 8.1-9.8 10.5-15.6 2.4-5.8 3.6-11.9 3.6-18.4 0-6.5-1.2-12.8-3.6-18.7-2.4-5.9-5.9-11.1-10.4-15.6-4.6-4.6-9.8-8.1-15.5-10.5-5.8-2.4-11.9-3.6-18.3-3.6-6.5 0-12.7 1.2-18.5 3.6-5.8 2.4-10.9 5.9-15.4 10.5-4.6 4.6-8.1 9.9-10.5 15.7-2.4 5.9-3.6 12.1-3.6 18.6 0 6.5 1.2 12.6 3.6 18.4 2.4 5.7 5.9 11 10.5 15.6 4.7 4.7 9.9 8.2 15.6 10.6 5.6 2.4 11.7 3.6 18.1 3.6z"/></g></svg>