<svg id="Camada_1" data-name="Camada 1" xmlns="http://www.w3.org/2000/svg" viewBox="0 0 1524.59 392.98"><title>logosvg</title><path d="M364.88,296.15c0,.78.06,1.54.06,2.31,0,85-71.85,153.58-158,148.15C133.08,442,73,381.86,68.34,308c-5.41-86.16,63.14-158,148.15-158V102c-113,0-204,95.86-196,210.52C27.27,409.51,106,488,203,494.5,318.2,502.22,414.26,410,413,296.2l-.05-.05Z" transform="translate(-20 -101.98)" style="fill:#7fdd64"/><path d="M364.9,208.4l0,86.2c0,3.06,1.65,5.53,3.68,5.53h40.68c2,0,3.68-2.47,3.68-5.53V147.29c0-4.93-4-7.4-6.28-3.91L366,204.49A7.16,7.16,0,0,0,364.9,208.4Z" transform="translate(-20 -101.98)" style="fill:#7fdd64"/><polyline points="134.66 131.26 198.16 194.76 392.92 0 392.92 66.92 197.65 262.19 100.69 165.23" style="fill:#7fdd64"/><text transform="translate(444.14 191.25)" style="font-size:163.465576171875px;fill:#7fdd64;font-family:FuturaBT-Book, Futura Bk BT">SYSTEM </text><text transform="translate(436.28 344.93)" style="font-size:163.465576171875px;fill:#7fdd64;font-family:FuturaBT-Book, Futura Bk BT">REGUL<tspan x="497.98" y="0" style="letter-spacing:-0.05468706827669124em">A</tspan><tspan x="591.21" y="0" style="letter-spacing:-0.000005974117137501774em">TÓRIO</tspan></text></svg>